<svg width="20" height="16" viewBox="0 0 16 16" fill="none" xmlns="http://www.w3.org/2000/svg">
<path d="M12.828 5.17138C12.6404 4.98374 12.5349 4.72924 12.5349 4.46388C12.5349 4.33248 12.5608 4.20237 12.6111 4.08098C12.6614 3.95959 12.7351 3.84929 12.828 3.75638C12.9209 3.66347 13.0312 3.58977 13.1526 3.53948C13.274 3.4892 13.4041 3.46332 13.5355 3.46332C13.8009 3.46332 14.0554 3.56874 14.243 3.75638C14.8003 4.31354 15.2423 4.97502 15.5439 5.70304C15.8455 6.43106 16.0007 7.21136 16.0007 7.99938C16.0007 8.78739 15.8455 9.56769 15.5439 10.2957C15.2423 11.0237 14.8003 11.6852 14.243 12.2424C14.0554 12.43 13.8009 12.5354 13.5355 12.5354C13.2701 12.5354 13.0156 12.43 12.828 12.2424C12.6404 12.0547 12.5349 11.8002 12.5349 11.5349C12.5349 11.2695 12.6404 11.015 12.828 10.8274C13.5779 10.0773 13.9991 9.06003 13.9991 7.99938C13.9991 6.93872 13.5779 5.92149 12.828 5.17138ZM2 5.99938V10.9994C2 11.2646 1.89464 11.5189 1.70711 11.7065C1.51957 11.894 1.26522 11.9994 1 11.9994C0.734784 11.9994 0.48043 11.894 0.292893 11.7065C0.105357 11.5189 0 11.2646 0 10.9994V4.99938C0 4.73416 0.105357 4.47981 0.292893 4.29227C0.48043 4.10473 0.734784 3.99938 1 3.99938H3.65L8.375 0.219376C8.52203 0.101659 8.69931 0.0278582 8.88644 0.00646946C9.07357 -0.0149193 9.26293 0.0169741 9.43273 0.0984776C9.60253 0.179981 9.74586 0.307781 9.84622 0.467163C9.94658 0.626545 9.99988 0.811029 10 0.999376V14.9994C9.99988 15.1877 9.94658 15.3722 9.84622 15.5316C9.74586 15.691 9.60253 15.8188 9.43273 15.9003C9.26293 15.9818 9.07357 16.0137 8.88644 15.9923C8.69931 15.9709 8.52203 15.8971 8.375 15.7794L3.375 11.7794C3.2679 11.6989 3.17806 11.5978 3.11081 11.4819C3.04356 11.3661 3.00026 11.2379 2.9835 11.105C2.96673 10.9721 2.97684 10.8372 3.01321 10.7083C3.04959 10.5794 3.11149 10.4591 3.19525 10.3545C3.27901 10.25 3.38292 10.1634 3.50081 10.0998C3.61869 10.0362 3.74816 9.9969 3.88151 9.98429C4.01487 9.97168 4.1494 9.986 4.27711 10.0264C4.40483 10.0668 4.52313 10.1324 4.625 10.2194L8 12.9194V3.07938L4.625 5.77938C4.44772 5.9216 4.22728 5.9992 4 5.99938H2Z" fill="black"/>
</svg>
