<svg width="20" height="16" viewBox="0 0 21 17" fill="none" xmlns="http://www.w3.org/2000/svg">
<path d="M2.18042 6.7014V11.7014C2.18042 11.9666 2.07506 12.221 1.88753 12.4085C1.69999 12.596 1.44564 12.7014 1.18042 12.7014C0.915203 12.7014 0.660849 12.596 0.473313 12.4085C0.285777 12.221 0.18042 11.9666 0.18042 11.7014V5.7014C0.18042 5.43619 0.285777 5.18183 0.473313 4.9943C0.660849 4.80676 0.915203 4.7014 1.18042 4.7014H3.83042L8.55542 0.921402C8.70245 0.803686 8.87973 0.729885 9.06686 0.708496C9.25399 0.687107 9.44335 0.719001 9.61315 0.800504C9.78295 0.882007 9.92628 1.00981 10.0266 1.16919C10.127 1.32857 10.1803 1.51306 10.1804 1.7014C10.1804 7.16874 10.1804 10.2341 10.1804 15.7014C10.1803 15.8898 10.127 16.0742 10.0266 16.2336C9.92628 16.393 9.78295 16.5208 9.61315 16.6023C9.44335 16.6838 9.25399 16.7157 9.06686 16.6943C8.87973 16.6729 8.70245 16.5991 8.55542 16.4814L3.55542 12.4814C3.44832 12.4009 3.35848 12.2998 3.29123 12.184C3.22398 12.0681 3.18068 11.9399 3.16392 11.807C3.14715 11.6741 3.15726 11.5392 3.19363 11.4103C3.23001 11.2814 3.29191 11.1611 3.37567 11.0566C3.45943 10.952 3.56334 10.8654 3.68123 10.8018C3.79911 10.7382 3.92858 10.6989 4.06193 10.6863C4.19529 10.6737 4.32982 10.688 4.45753 10.7284C4.58525 10.7688 4.70355 10.8344 4.80542 10.9214L8.18042 13.6214V3.7814L4.80542 6.4814C4.62814 6.62363 4.4077 6.70123 4.18042 6.7014H2.18042Z" fill="black"/>
<path d="M13.7253 6.77139L14.4324 7.4785L16.2002 9.24627C16.9502 9.99626 17.4833 10.5185 18.1949 11.2409C18.9064 11.9634 19.0411 12.0991 19.2288 12.2868L19.2985 12.3575C19.6042 12.6675 19.9153 12.4791 20.2231 12.1712C20.4996 11.8947 20.6047 11.5416 20.3283 11.265L20.2894 11.2261L17.2499 8.18654L15.6751 6.61175L14.4265 5.36313C14.2259 5.16257 13.9009 5.16259 13.7017 5.36445C13.6019 5.46549 13.4876 5.58173 13.3667 5.70545C13.1707 5.90596 13.1675 6.22555 13.3658 6.42379L13.5311 6.58914C13.5584 6.61636 13.5853 6.64421 13.6119 6.67203C13.7522 6.81863 13.6394 6.68554 13.7253 6.77139Z" fill="black"/>
<path d="M19.2094 5.8572L18.5023 6.5643L16.7345 8.33207C15.9845 9.08207 15.4623 9.61517 14.7398 10.3268C14.0174 11.0383 13.8816 11.173 13.694 11.3607L13.6233 11.4304C13.3133 11.7361 13.5017 12.0472 13.8095 12.355C14.086 12.6315 14.4392 12.7366 14.7158 12.4602L14.7547 12.4213L17.7942 9.38176L19.369 7.80697L20.6176 6.55835C20.8182 6.35779 20.8182 6.0328 20.6163 5.83355C20.5153 5.73381 20.399 5.61948 20.2753 5.49856C20.0748 5.3026 19.7552 5.29944 19.557 5.49769L19.3916 5.66303C19.3644 5.69026 19.3366 5.71718 19.3087 5.7438C19.1621 5.8841 19.2952 5.77135 19.2094 5.8572Z" fill="black"/>
</svg>
