<svg width="32" height="35" viewBox="0 0 32 35" fill="none" xmlns="http://www.w3.org/2000/svg">
<path d="M26.48 19.7364C25.2369 16.657 24.6152 13.4116 24.6152 10.0001C24.6152 7.85169 24.0002 6.14612 22.7698 4.88295C21.5385 3.61985 19.8461 2.85791 17.6922 2.59762C17.7946 2.36339 17.8457 2.12252 17.8457 1.87509C17.8457 1.35422 17.6664 0.911137 17.3075 0.54686C16.9486 0.182173 16.5128 0 15.9998 0C15.4872 0 15.0512 0.182173 14.6922 0.54686C14.3332 0.911411 14.1538 1.35422 14.1538 1.87509C14.1538 2.12252 14.205 2.36318 14.3077 2.59762C12.1538 2.85819 10.4614 3.61978 9.23069 4.88295C8.00002 6.14605 7.38471 7.85162 7.38471 10.0001C7.38471 13.4116 6.76308 16.657 5.51934 19.7364C4.27567 22.8158 2.43602 25.4038 0 27.5002C0 28.1772 0.243629 28.7632 0.73082 29.2578C1.21794 29.7525 1.79479 30.0002 2.46168 30.0002H11.0771C11.0771 31.3806 11.5577 32.559 12.5192 33.5352C13.4809 34.5116 14.6412 35 16.0001 35C17.3592 35 18.5195 34.5116 19.4808 33.5352C20.4421 32.559 20.923 31.3806 20.923 30.0002H29.5384C30.205 30.0002 30.7825 29.753 31.269 29.2578C31.7563 28.7632 32 28.1772 32 27.5002C29.5644 25.4038 27.7245 22.8158 26.48 19.7364ZM16.0001 33.4373C15.0642 33.4373 14.2659 33.1024 13.6057 32.4319C12.9455 31.7612 12.6154 30.9503 12.6154 29.9997C12.6154 29.7914 12.718 29.6872 12.923 29.6872C13.1282 29.6872 13.2309 29.7914 13.2309 29.9997C13.2309 30.768 13.5032 31.4287 14.048 31.9824C14.593 32.5361 15.2436 32.8125 16 32.8125C16.2052 32.8125 16.3082 32.9172 16.3082 33.125C16.3083 33.3334 16.2053 33.4373 16.0001 33.4373Z" fill="#373737"/>
</svg>
