<svg width="27" height="27" viewBox="0 0 27 27" fill="none" xmlns="http://www.w3.org/2000/svg">
<path fill-rule="evenodd" clip-rule="evenodd" d="M17.8679 20.1867C15.9695 21.5919 21.8726 15.5554 20.1928 17.85C20.2349 17.8467 20.157 17.9739 19.8958 18.2928C19.8958 18.2928 24.3819 22.7487 26.5841 25.0165C27.3486 25.8432 25.9693 27.4933 25.0321 26.6318C23.0379 24.697 18.3191 19.8885 18.3118 19.8807L17.8679 20.1867Z" fill="black"/>
<path d="M11.2759 22.4399C14.1625 22.4119 17.0198 21.2163 19.0746 19.1857C21.515 16.7739 22.7716 13.2058 22.3333 9.79909C21.5823 3.96156 16.7833 0 11.2042 0C6.96517 0 2.84555 2.65169 1.03852 6.49667C-0.344773 9.44038 -0.347575 12.9945 1.03852 15.9432C2.83266 19.7613 6.88502 22.399 11.1319 22.4399C11.1801 22.4399 11.2283 22.4399 11.2759 22.4399ZM11.1436 20.5695C6.8329 20.528 2.8108 17.1942 2.01098 12.9199C1.44712 9.90671 2.5115 6.64576 4.72881 4.5058C7.31716 2.00656 11.3858 1.16975 14.7689 2.58611C17.7956 3.85339 20.0611 6.79597 20.4787 10.0379C20.8362 12.8168 19.8391 15.7291 17.8796 17.7351C16.1606 19.4951 13.7499 20.5454 11.2642 20.5695C11.2238 20.5695 11.184 20.5695 11.1436 20.5695Z" fill="black"/>
</svg>
