<svg width="50" height="50" viewBox="0 0 50 50" fill="none" xmlns="http://www.w3.org/2000/svg">
<path fill-rule="evenodd" clip-rule="evenodd" d="M25 43.75C35.3553 43.75 43.75 35.3553 43.75 25C43.75 14.6447 35.3553 6.25002 25 6.25002C14.6447 6.25002 6.25002 14.6447 6.25002 25C6.25002 35.3553 14.6447 43.75 25 43.75ZM25 45.8334C36.506 45.8334 45.8334 36.506 45.8334 25C45.8334 13.4941 36.506 4.16669 25 4.16669C13.4941 4.16669 4.16669 13.4941 4.16669 25C4.16669 36.506 13.4941 45.8334 25 45.8334Z" fill="#1F1F1F"/>
<path d="M12.5 37.1155C12.5 36.0387 13.3042 35.1293 14.3745 35.0107C22.4115 34.1207 27.6256 34.2005 35.6437 35.0299C36.7004 35.1393 37.5 36.0331 37.5 37.0954C37.5 37.6882 37.2449 38.2578 36.7981 38.6473C27.3348 46.8953 21.9258 46.7815 13.1669 38.6549C12.7402 38.2589 12.5 37.6976 12.5 37.1155Z" fill="#1F1F1F"/>
<path fill-rule="evenodd" clip-rule="evenodd" d="M35.5365 36.066C27.5816 35.2431 22.4426 35.1653 14.489 36.046C13.9535 36.1054 13.5416 36.5627 13.5416 37.1155C13.5416 37.4136 13.6653 37.6963 13.8754 37.8913C18.2165 41.9191 21.5063 43.7382 24.7222 43.7499C27.9488 43.7618 31.4158 41.9566 36.1136 37.8621C36.3299 37.6736 36.4583 37.3921 36.4583 37.0954C36.4583 36.5623 36.0577 36.12 35.5365 36.066ZM14.2598 33.9754C22.3804 33.0761 27.6696 33.1578 35.7509 33.9938C37.3432 34.1585 38.5416 35.5039 38.5416 37.0954C38.5416 37.9844 38.16 38.8421 37.4825 39.4326C32.717 43.586 28.7479 45.848 24.7146 45.8332C20.6703 45.8184 16.8761 43.5174 12.4584 39.4185C11.8151 38.8217 11.4583 37.9817 11.4583 37.1155C11.4583 35.5149 12.6549 34.1531 14.2598 33.9754Z" fill="#1F1F1F"/>
<path d="M33.3333 20.8333C33.3333 25.4357 29.6024 29.1667 25 29.1667C20.3976 29.1667 16.6667 25.4357 16.6667 20.8333C16.6667 16.2309 20.3976 12.5 25 12.5C29.6024 12.5 33.3333 16.2309 33.3333 20.8333Z" fill="#1F1F1F"/>
<path fill-rule="evenodd" clip-rule="evenodd" d="M25 27.0833C28.4518 27.0833 31.25 24.2851 31.25 20.8333C31.25 17.3816 28.4518 14.5833 25 14.5833C21.5482 14.5833 18.75 17.3816 18.75 20.8333C18.75 24.2851 21.5482 27.0833 25 27.0833ZM25 29.1667C29.6024 29.1667 33.3333 25.4357 33.3333 20.8333C33.3333 16.2309 29.6024 12.5 25 12.5C20.3976 12.5 16.6667 16.2309 16.6667 20.8333C16.6667 25.4357 20.3976 29.1667 25 29.1667Z" fill="#1F1F1F"/>
</svg>
