<svg width="29" height="30" viewBox="0 0 26 27" fill="none" xmlns="http://www.w3.org/2000/svg">
<g clip-path="url(#clip0_114_339)">
<path d="M7.69248 26.318H2.7517C1.54574 26.318 0.568108 25.3288 0.568108 24.1086V2.9121C0.568108 1.69186 1.54574 0.702667 2.7517 0.702667H7.69248C8.89845 0.702667 9.87607 1.69186 9.87607 2.9121V24.1086C9.87607 25.3288 8.89845 26.318 7.69248 26.318Z" fill="black"/>
<path d="M23.3783 26.2973H18.4375C17.2316 26.2973 16.2539 25.3081 16.2539 24.0879V2.89138C16.2539 1.67114 17.2316 0.681946 18.4375 0.681946H23.3783C24.5843 0.681946 25.5619 1.67114 25.5619 2.89138V24.0879C25.5619 25.3081 24.5843 26.2973 23.3783 26.2973Z" fill="black"/>
<path d="M8.07101 0.741364C8.4972 1.14456 8.76765 1.7143 8.76765 2.35133V23.5478C8.76765 24.7681 7.79003 25.7573 6.58406 25.7573H1.64328C1.51359 25.7573 1.38834 25.7405 1.26475 25.7186C1.65492 26.0876 2.17532 26.318 2.7517 26.318H7.69248C8.89845 26.318 9.87607 25.3289 9.87607 24.1086V2.9121C9.87607 1.82309 9.09574 0.923614 8.07101 0.741364Z" fill="black"/>
<path d="M23.7568 0.720612C24.183 1.1238 24.4535 1.69355 24.4535 2.33058V23.5271C24.4535 24.7473 23.4758 25.7365 22.2699 25.7365H17.3291C17.1994 25.7365 17.0742 25.7197 16.9506 25.6978C17.3407 26.0668 17.8611 26.2973 18.4375 26.2973H23.3783C24.5843 26.2973 25.5619 25.3081 25.5619 24.0879V2.89135C25.5619 1.80234 24.7816 0.902301 23.7568 0.720612Z" fill="black"/>
<path d="M7.69248 26.318H2.7517C1.54574 26.318 0.568108 25.3288 0.568108 24.1086V2.9121C0.568108 1.69186 1.54574 0.702667 2.7517 0.702667H7.69248C8.89845 0.702667 9.87607 1.69186 9.87607 2.9121V24.1086C9.87607 25.3288 8.89845 26.318 7.69248 26.318Z" stroke="black" stroke-miterlimit="10"/>
<path d="M23.3783 26.2973H18.4375C17.2316 26.2973 16.2539 25.3081 16.2539 24.0879V2.89138C16.2539 1.67114 17.2316 0.681946 18.4375 0.681946H23.3783C24.5843 0.681946 25.5619 1.67114 25.5619 2.89138V24.0879C25.5619 25.3081 24.5843 26.2973 23.3783 26.2973Z" stroke="black" stroke-miterlimit="10"/>
</g>
<defs>
<clipPath id="clip0_114_339">
<rect width="26" height="27" fill="white"/>
</clipPath>
</defs>
</svg>
