<svg width="246" height="31" viewBox="0 0 246 31" fill="none" xmlns="http://www.w3.org/2000/svg">
<path d="M15.7812 17.1562C15.6458 18.2083 15.375 19.1771 14.9688 20.0625C14.5625 20.9375 14.0365 21.6875 13.3906 22.3125C12.7344 22.9479 11.9583 23.4427 11.0625 23.7969C10.1771 24.1406 9.1875 24.3125 8.09375 24.3125C7.15625 24.3125 6.30208 24.1823 5.53125 23.9219C4.77083 23.651 4.09375 23.2812 3.5 22.8125C2.89583 22.3437 2.375 21.7917 1.9375 21.1562C1.51042 20.5208 1.15625 19.8281 0.875 19.0781C0.583333 18.3281 0.364583 17.5417 0.21875 16.7187C0.0833333 15.8958 0.0104167 15.0625 0 14.2187V11.0469C0.0104167 10.2031 0.0833333 9.36979 0.21875 8.54687C0.364583 7.72396 0.583333 6.9375 0.875 6.1875C1.15625 5.4375 1.51042 4.74479 1.9375 4.10937C2.375 3.46354 2.89583 2.90625 3.5 2.4375C4.09375 1.96875 4.77083 1.60417 5.53125 1.34375C6.29167 1.07292 7.14583 0.9375 8.09375 0.9375C9.22917 0.9375 10.2448 1.11458 11.1406 1.46875C12.0365 1.8125 12.8073 2.30208 13.4531 2.9375C14.099 3.58333 14.6146 4.35417 15 5.25C15.3958 6.14583 15.6562 7.13541 15.7812 8.21875H12.8906C12.7969 7.53125 12.6354 6.89062 12.4062 6.29687C12.1771 5.70312 11.8698 5.18229 11.4844 4.73437C11.099 4.28646 10.625 3.9375 10.0625 3.6875C9.51042 3.42708 8.85417 3.29688 8.09375 3.29688C7.40625 3.29688 6.79688 3.41146 6.26562 3.64062C5.74479 3.85937 5.29688 4.16146 4.92188 4.54687C4.53646 4.93229 4.21354 5.38021 3.95312 5.89062C3.70312 6.40104 3.5 6.94271 3.34375 7.51562C3.1875 8.08854 3.07292 8.67708 3 9.28125C2.9375 9.875 2.90625 10.4531 2.90625 11.0156V14.2187C2.90625 14.7812 2.9375 15.3646 3 15.9687C3.07292 16.5625 3.1875 17.1458 3.34375 17.7187C3.5 18.3021 3.70312 18.849 3.95312 19.3594C4.20312 19.8698 4.52083 20.3177 4.90625 20.7031C5.29167 21.099 5.74479 21.4115 6.26562 21.6406C6.78646 21.8594 7.39583 21.9687 8.09375 21.9687C8.85417 21.9687 9.51042 21.849 10.0625 21.6094C10.625 21.3698 11.099 21.0312 11.4844 20.5937C11.8698 20.1667 12.1771 19.6615 12.4062 19.0781C12.6354 18.4844 12.7969 17.8437 12.8906 17.1562H15.7812Z" fill="black"/>
<path d="M19.4531 15.3906C19.4531 14.1719 19.6302 13.0417 19.9844 12C20.3385 10.9479 20.849 10.0365 21.5156 9.26562C22.1719 8.49479 22.974 7.89062 23.9219 7.45312C24.8698 7.00521 25.9375 6.78125 27.125 6.78125C28.3229 6.78125 29.3958 7.00521 30.3438 7.45312C31.3021 7.89062 32.1146 8.49479 32.7812 9.26562C33.4375 10.0365 33.9427 10.9479 34.2969 12C34.651 13.0417 34.8281 14.1719 34.8281 15.3906V15.7344C34.8281 16.9531 34.651 18.0833 34.2969 19.125C33.9427 20.1667 33.4375 21.0729 32.7812 21.8437C32.1146 22.6146 31.3073 23.2187 30.3594 23.6562C29.4115 24.0937 28.3438 24.3125 27.1562 24.3125C25.9583 24.3125 24.8802 24.0937 23.9219 23.6562C22.974 23.2187 22.1719 22.6146 21.5156 21.8437C20.849 21.0729 20.3385 20.1667 19.9844 19.125C19.6302 18.0833 19.4531 16.9531 19.4531 15.7344V15.3906ZM22.3438 15.7344C22.3438 16.5677 22.4427 17.3646 22.6406 18.125C22.8385 18.875 23.1406 19.5365 23.5469 20.1094C23.9427 20.6823 24.4427 21.1354 25.0469 21.4687C25.651 21.8021 26.3542 21.9687 27.1562 21.9687C27.9479 21.9687 28.6406 21.8021 29.2344 21.4687C29.8385 21.1354 30.3438 20.6823 30.75 20.1094C31.1458 19.5365 31.4427 18.875 31.6406 18.125C31.8385 17.3646 31.9375 16.5677 31.9375 15.7344V15.3906C31.9375 14.5677 31.8333 13.7812 31.625 13.0312C31.4271 12.2708 31.1302 11.6042 30.7344 11.0312C30.3281 10.4583 29.8229 10.0052 29.2188 9.67187C28.625 9.32812 27.9271 9.15625 27.125 9.15625C26.3229 9.15625 25.625 9.32812 25.0312 9.67187C24.4375 10.0052 23.9427 10.4583 23.5469 11.0312C23.1406 11.6042 22.8385 12.2708 22.6406 13.0312C22.4427 13.7812 22.3438 14.5677 22.3438 15.3906V15.7344Z" fill="black"/>
<path d="M40.8125 7.09375L40.8906 8.6875C41.2344 8.09375 41.6823 7.63021 42.2344 7.29687C42.7969 6.96354 43.474 6.79167 44.2656 6.78125C44.7135 6.78125 45.1146 6.83333 45.4688 6.9375C45.8333 7.03125 46.151 7.17187 46.4219 7.35937C46.6198 7.50521 46.7969 7.68229 46.9531 7.89062C47.1198 8.09896 47.2604 8.33333 47.375 8.59375C47.5208 8.35416 47.6927 8.13021 47.8906 7.92187C48.0885 7.71354 48.3021 7.53125 48.5312 7.375C48.8229 7.19792 49.1458 7.05729 49.5 6.95312C49.8646 6.84896 50.2604 6.79167 50.6875 6.78125C51.2708 6.78125 51.7969 6.86979 52.2656 7.04687C52.7344 7.21354 53.1302 7.46354 53.4531 7.79687C53.8073 8.17187 54.0781 8.66146 54.2656 9.26562C54.4531 9.85937 54.5469 10.5625 54.5469 11.375V30.5H51.7969V11.3437C51.7969 10.9896 51.7552 10.6771 51.6719 10.4062C51.5885 10.1354 51.4688 9.91146 51.3125 9.73437C51.1458 9.56771 50.9375 9.44271 50.6875 9.35937C50.4479 9.27604 50.1667 9.23437 49.8438 9.23437C49.5 9.23437 49.2031 9.28125 48.9531 9.375C48.7031 9.46875 48.4948 9.59375 48.3281 9.75C48.1615 9.91666 48.0312 10.1094 47.9375 10.3281C47.8438 10.5365 47.7812 10.7708 47.75 11.0312C47.75 11.0833 47.75 11.1354 47.75 11.1875C47.75 11.2292 47.75 11.2812 47.75 11.3437V24H45V11.3281C45 10.974 44.9583 10.6615 44.875 10.3906C44.8021 10.1198 44.6823 9.89583 44.5156 9.71875C44.3594 9.55208 44.1615 9.43229 43.9219 9.35937C43.6927 9.27604 43.4219 9.23437 43.1094 9.23437C42.7656 9.23437 42.4635 9.27604 42.2031 9.35937C41.9531 9.43229 41.7396 9.54166 41.5625 9.6875C41.4271 9.80208 41.3073 9.93229 41.2031 10.0781C41.1094 10.224 41.0312 10.3802 40.9688 10.5469V24H38.2188V7.09375H40.8125Z" fill="black"/>
<path d="M58.6875 30.5V7.09375H61.3281L61.4688 8.9375C61.6979 8.64583 61.9479 8.38541 62.2188 8.15625C62.4896 7.91666 62.7812 7.71354 63.0938 7.54687C63.5312 7.29687 64.0156 7.10937 64.5469 6.98437C65.0885 6.84896 65.6667 6.78125 66.2812 6.78125C67.3646 6.78125 68.3229 6.99479 69.1562 7.42187C69.9896 7.84896 70.6875 8.44271 71.25 9.20312C71.8125 9.96354 72.2396 10.875 72.5312 11.9375C72.8229 12.9896 72.9688 14.1458 72.9688 15.4063V15.7344C72.9688 16.9427 72.8229 18.0729 72.5312 19.125C72.2396 20.1667 71.8125 21.0729 71.25 21.8437C70.6875 22.6146 69.9896 23.2187 69.1562 23.6562C68.3333 24.0937 67.3906 24.3125 66.3281 24.3125C65.6823 24.3125 65.0781 24.2448 64.5156 24.1094C63.9635 23.974 63.4635 23.7812 63.0156 23.5312C62.7448 23.375 62.4896 23.2031 62.25 23.0156C62.0104 22.8177 61.7865 22.6042 61.5781 22.375V30.5H58.6875ZM70.0781 15.4063C70.0781 14.5833 69.9844 13.8021 69.7969 13.0625C69.6198 12.3125 69.3438 11.651 68.9688 11.0781C68.5833 10.5156 68.099 10.0677 67.5156 9.73437C66.9323 9.40104 66.2344 9.23437 65.4219 9.23437C64.974 9.23437 64.5573 9.28646 64.1719 9.39062C63.7969 9.49479 63.4583 9.64583 63.1562 9.84375C62.8229 10.0417 62.526 10.2865 62.2656 10.5781C62.0052 10.8698 61.776 11.1927 61.5781 11.5469V19.6875C61.7552 20 61.9583 20.2917 62.1875 20.5625C62.4167 20.8333 62.6771 21.0625 62.9688 21.25C63.3021 21.4687 63.6719 21.6406 64.0781 21.7656C64.4948 21.8906 64.9531 21.9531 65.4531 21.9531C66.2552 21.9531 66.9479 21.7865 67.5312 21.4531C68.1146 21.1094 68.5938 20.651 68.9688 20.0781C69.3438 19.5052 69.6198 18.8437 69.7969 18.0937C69.9844 17.3437 70.0781 16.5573 70.0781 15.7344V15.4063Z" fill="black"/>
<path d="M58.6875 6.25849e-06L87.0156 0V21.5H92.5312V24H78.375V21.5H84.125V2.51563L58.6875 2.51563V6.25849e-06Z" fill="black"/>
<path d="M104.609 24.3125C103.422 24.3125 102.328 24.1094 101.328 23.7031C100.339 23.2969 99.4896 22.7292 98.7812 22C98.0729 21.2708 97.5208 20.4062 97.125 19.4062C96.7292 18.4062 96.5312 17.3177 96.5312 16.1406V15.4844C96.5312 14.1198 96.75 12.901 97.1875 11.8281C97.625 10.7448 98.2083 9.82812 98.9375 9.07812C99.6562 8.33854 100.474 7.77083 101.391 7.375C102.318 6.97917 103.266 6.78125 104.234 6.78125C105.453 6.78125 106.516 6.99479 107.422 7.42187C108.339 7.83854 109.099 8.41666 109.703 9.15625C110.307 9.90625 110.755 10.7865 111.047 11.7969C111.349 12.8073 111.5 13.901 111.5 15.0781V16.375H99.4219V16.4844C99.4948 17.3073 99.6562 18.0312 99.9062 18.6562C100.167 19.2812 100.521 19.8333 100.969 20.3125C101.427 20.8229 101.979 21.224 102.625 21.5156C103.271 21.8073 103.984 21.9531 104.766 21.9531C105.797 21.9531 106.714 21.7448 107.516 21.3281C108.318 20.9115 108.984 20.3594 109.516 19.6719L111.281 21.0469C110.719 21.901 109.875 22.6615 108.75 23.3281C107.635 23.9844 106.255 24.3125 104.609 24.3125ZM104.234 9.15625C103.651 9.15625 103.099 9.26562 102.578 9.48437C102.057 9.69271 101.589 10 101.172 10.4062C100.755 10.8229 100.401 11.3333 100.109 11.9375C99.8281 12.5312 99.6302 13.2187 99.5156 14H108.609V13.8594C108.609 13.3385 108.51 12.7812 108.312 12.1875C108.115 11.5833 107.839 11.0625 107.484 10.625C107.13 10.1875 106.682 9.83333 106.141 9.5625C105.609 9.29166 104.974 9.15625 104.234 9.15625Z" fill="black"/>
<path d="M123.344 13.3594L127.859 7.09375H131.25L124.953 15.4531L134.594 28.5H131.25L123.406 17.5625L118.734 24H115.359L121.828 15.4531L115.531 7.09375H118.875L123.344 13.3594Z" fill="black"/>
<path d="M156.125 7.09375L156.203 8.6875C156.547 8.09375 156.995 7.63021 157.547 7.29687C158.109 6.96354 158.786 6.79167 159.578 6.78125C160.026 6.78125 160.427 6.83333 160.781 6.9375C161.146 7.03125 161.464 7.17187 161.734 7.35937C161.932 7.50521 162.109 7.68229 162.266 7.89062C162.432 8.09896 162.573 8.33333 162.688 8.59375C162.833 8.35416 163.005 8.13021 163.203 7.92187C163.401 7.71354 163.615 7.53125 163.844 7.375C164.135 7.19792 164.458 7.05729 164.812 6.95312C165.177 6.84896 165.573 6.79167 166 6.78125C166.583 6.78125 167.109 6.86979 167.578 7.04687C168.047 7.21354 168.443 7.46354 168.766 7.79687C169.12 8.17187 169.391 8.66146 169.578 9.26562C169.766 9.85937 169.859 10.5625 169.859 11.375V24H167.109V11.3437C167.109 10.9896 167.068 10.6771 166.984 10.4062C166.901 10.1354 166.781 9.91146 166.625 9.73437C166.458 9.56771 166.25 9.44271 166 9.35937C165.76 9.27604 165.479 9.23437 165.156 9.23437C164.812 9.23437 164.516 9.28125 164.266 9.375C164.016 9.46875 163.807 9.59375 163.641 9.75C163.474 9.91666 163.344 10.1094 163.25 10.3281C163.156 10.5365 163.094 10.7708 163.062 11.0312C163.062 11.0833 163.062 11.1354 163.062 11.1875C163.062 11.2292 163.062 11.2812 163.062 11.3437V24H160.312V11.3281C160.312 10.974 160.271 10.6615 160.188 10.3906C160.115 10.1198 159.995 9.89583 159.828 9.71875C159.672 9.55208 159.474 9.43229 159.234 9.35937C159.005 9.27604 158.734 9.23437 158.422 9.23437C158.078 9.23437 157.776 9.27604 157.516 9.35937C157.266 9.43229 157.052 9.54166 156.875 9.6875C156.74 9.80208 156.62 9.93229 156.516 10.0781C156.422 10.224 156.344 10.3802 156.281 10.5469V24H153.531V7.09375H156.125Z" fill="black"/>
<path d="M185.156 24L184.984 21.6719C184.422 22.5052 183.719 23.1562 182.875 23.625C182.031 24.0833 181.057 24.3125 179.953 24.3125C179.068 24.3125 178.266 24.1771 177.547 23.9062C176.828 23.625 176.214 23.1927 175.703 22.6094C175.193 22.026 174.797 21.2865 174.516 20.3906C174.245 19.4844 174.109 18.401 174.109 17.1406V7.09375H177V17.1719C177 18.0885 177.073 18.849 177.219 19.4531C177.365 20.0573 177.583 20.5365 177.875 20.8906C178.167 21.2552 178.521 21.5104 178.938 21.6562C179.365 21.8021 179.854 21.875 180.406 21.875C181.052 21.875 181.63 21.8021 182.141 21.6562C182.651 21.5 183.094 21.2865 183.469 21.0156C183.781 20.7969 184.052 20.5365 184.281 20.2344C184.521 19.9219 184.719 19.5833 184.875 19.2187V7.09375H187.781V24H185.156Z" fill="black"/>
<path d="M204.469 19.5156C204.469 19.1719 204.401 18.8646 204.266 18.5937C204.13 18.3125 203.901 18.0573 203.578 17.8281C203.255 17.599 202.828 17.3906 202.297 17.2031C201.766 17.0052 201.104 16.8281 200.312 16.6719C199.344 16.474 198.458 16.2344 197.656 15.9531C196.865 15.6719 196.188 15.3333 195.625 14.9375C195.052 14.5521 194.609 14.099 194.297 13.5781C193.984 13.0469 193.828 12.4323 193.828 11.7344C193.828 11.0469 193.99 10.4062 194.312 9.8125C194.635 9.20833 195.089 8.68229 195.672 8.23437C196.255 7.78646 196.948 7.43229 197.75 7.17187C198.562 6.91146 199.453 6.78125 200.422 6.78125C201.464 6.78125 202.401 6.91667 203.234 7.1875C204.068 7.45833 204.776 7.83333 205.359 8.3125C205.943 8.79166 206.391 9.35416 206.703 10C207.026 10.6354 207.188 11.3229 207.188 12.0625H204.297C204.297 11.6979 204.203 11.3437 204.016 11C203.828 10.6458 203.568 10.3333 203.234 10.0625C202.901 9.79166 202.495 9.57291 202.016 9.40625C201.547 9.23958 201.016 9.15625 200.422 9.15625C199.807 9.15625 199.266 9.22396 198.797 9.35937C198.339 9.49479 197.958 9.67708 197.656 9.90625C197.344 10.1354 197.109 10.401 196.953 10.7031C196.797 11.0052 196.719 11.3177 196.719 11.6406C196.719 11.974 196.781 12.2708 196.906 12.5312C197.031 12.7917 197.25 13.026 197.562 13.2344C197.865 13.4427 198.271 13.6302 198.781 13.7969C199.302 13.9635 199.958 14.125 200.75 14.2812C201.792 14.5 202.724 14.7552 203.547 15.0469C204.37 15.3281 205.062 15.6667 205.625 16.0625C206.188 16.4687 206.615 16.9375 206.906 17.4687C207.208 18 207.359 18.6146 207.359 19.3125C207.359 20.0625 207.188 20.7448 206.844 21.3594C206.51 21.974 206.042 22.5 205.438 22.9375C204.833 23.375 204.109 23.7135 203.266 23.9531C202.422 24.1927 201.5 24.3125 200.5 24.3125C199.354 24.3125 198.333 24.1615 197.438 23.8594C196.542 23.5469 195.786 23.1354 195.172 22.625C194.547 22.125 194.068 21.5417 193.734 20.875C193.411 20.2083 193.25 19.5156 193.25 18.7969H196.141C196.182 19.3906 196.339 19.8906 196.609 20.2969C196.891 20.7031 197.24 21.0312 197.656 21.2812C198.062 21.5312 198.516 21.7083 199.016 21.8125C199.516 21.9167 200.01 21.9687 200.5 21.9687C201.271 21.9687 201.943 21.8802 202.516 21.7031C203.089 21.5156 203.536 21.2604 203.859 20.9375C204.057 20.7396 204.208 20.5208 204.312 20.2812C204.417 20.0417 204.469 19.7865 204.469 19.5156Z" fill="black"/>
<path d="M212.906 7.09375H221.547V21.5H227.062V24H212.906V21.5H218.656V9.60937H212.906V7.09375ZM193.312 2.65625C193.312 2.40625 193.349 2.17188 193.422 1.95312C193.505 1.73438 193.63 1.54688 193.797 1.39062C193.932 1.25521 194.104 1.15104 194.312 1.07812C194.531 0.994792 194.776 0.953125 220.016 0.953125C220.286 0.953125 220.526 0.994792 220.734 1.07812C220.943 1.15104 221.115 1.25521 221.25 1.39062C221.417 1.53646 221.542 1.71875 221.625 1.9375C221.708 2.15625 221.75 2.39583 221.75 2.65625C221.75 3.125 221.604 3.51562 221.312 3.82812C221.021 4.14062 220.589 4.29687 220.016 4.29687C194.464 4.29687 194.026 4.14062 193.734 3.82812C193.453 3.51562 193.312 3.125 193.312 2.65625Z" fill="black"/>
<path d="M238.875 21.9687C239.396 21.9687 239.901 21.8854 240.391 21.7187C240.891 21.5521 241.333 21.3177 241.719 21.0156C242.104 20.724 242.411 20.3802 242.641 19.9844C242.88 19.5781 243.005 19.1406 243.016 18.6719H245.75C245.74 19.4219 245.542 20.1406 245.156 20.8281C244.781 21.5052 244.276 22.099 243.641 22.6094C243.005 23.1302 242.276 23.5469 241.453 23.8594C240.63 24.1615 239.771 24.3125 238.875 24.3125C237.594 24.3125 236.474 24.0833 235.516 23.625C234.557 23.1667 233.76 22.5469 233.125 21.7656C232.479 20.9948 231.995 20.1042 231.672 19.0937C231.349 18.0729 231.188 17 231.188 15.875V15.2187C231.188 14.1042 231.349 13.0365 231.672 12.0156C231.995 10.9948 232.479 10.0937 233.125 9.3125C233.76 8.54166 234.557 7.92708 235.516 7.46875C236.474 7.01041 237.594 6.78125 238.875 6.78125C239.875 6.78125 240.792 6.94271 241.625 7.26562C242.469 7.57812 243.198 8.00521 243.812 8.54687C244.417 9.09896 244.891 9.75 245.234 10.5C245.578 11.25 245.75 12.0521 245.75 12.9062H243.016C243.005 12.3958 242.891 11.9167 242.672 11.4687C242.464 11.0104 242.177 10.6094 241.812 10.2656C241.448 9.92187 241.01 9.65104 240.5 9.45312C240 9.25521 239.458 9.15625 238.875 9.15625C237.979 9.15625 237.224 9.33854 236.609 9.70312C236.005 10.0573 235.516 10.5208 235.141 11.0937C234.766 11.6771 234.495 12.3281 234.328 13.0469C234.172 13.7656 234.094 14.4896 234.094 15.2187V15.875C234.094 16.6146 234.172 17.349 234.328 18.0781C234.495 18.7969 234.766 19.4427 235.141 20.0156C235.505 20.599 235.99 21.0729 236.594 21.4375C237.208 21.7917 237.969 21.9687 238.875 21.9687Z" fill="black"/>
</svg>
